<?xml version="1.0" standalone="no"?>
<!DOCTYPE svg PUBLIC "-//W3C//DTD SVG 20010904//EN"
 "http://www.w3.org/TR/2001/REC-SVG-20010904/DTD/svg10.dtd">
<svg version="1.0" xmlns="http://www.w3.org/2000/svg"
 width="1255.000000pt" height="1280.000000pt" viewBox="0 0 1255.000000 1280.000000"
 preserveAspectRatio="xMidYMid meet">
<metadata>
Created by potrace 1.15, written by Peter Selinger 2001-2017
</metadata>
<g transform="translate(0.000000,1280.000000) scale(0.100000,-0.100000)"
fill="#000000" stroke="none">
<path d="M5395 12785 c-102 -26 -200 -96 -264 -190 -15 -22 -391 -843 -836
-1825 -444 -982 -811 -1788 -814 -1792 -4 -4 -283 -84 -621 -177 -338 -93
-698 -193 -800 -221 -102 -28 -232 -64 -290 -80 -58 -16 -186 -51 -285 -79
-99 -27 -403 -111 -675 -186 -302 -83 -520 -148 -560 -167 -218 -106 -310
-382 -201 -602 23 -47 276 -343 1091 -1279 583 -670 1060 -1221 1060 -1224 0
-3 -34 -184 -74 -402 -362 -1923 -518 -2752 -591 -3141 -47 -250 -89 -484 -92
-520 -15 -178 92 -358 262 -436 102 -47 184 -54 325 -26 97 19 1081 219 1608
326 123 25 249 56 280 69 31 13 498 275 1037 582 539 306 985 558 990 558 6 0
712 -427 1570 -948 858 -521 1592 -963 1631 -981 117 -55 249 -56 367 -4 58
26 832 550 884 600 88 81 143 207 143 323 0 34 -27 203 -60 377 -33 173 -141
745 -240 1270 -99 525 -235 1242 -301 1594 l-121 638 95 97 c52 53 648 672
1324 1377 1085 1131 1232 1289 1260 1345 39 80 58 172 50 248 -4 33 -71 262
-152 518 -221 693 -204 647 -285 736 -64 70 -160 121 -257 135 -37 6 -243 16
-458 22 -214 6 -525 15 -690 20 -165 5 -453 14 -640 20 -187 6 -475 15 -640
20 -165 5 -473 14 -685 21 -212 6 -452 14 -535 17 l-149 7 -462 874 c-254 480
-475 892 -491 915 -16 22 -316 365 -665 761 -667 756 -668 757 -788 800 -64
23 -183 28 -255 10z"/>
</g>
</svg>
